<?xml version="1.0" encoding="iso-8859-1"?>
<!-- Uploaded to: SVG Repo, www.svgrepo.com, Generator: SVG Repo Mixer Tools -->
<svg height="800px" width="800px" version="1.1" id="Layer_1" xmlns="http://www.w3.org/2000/svg" xmlns:xlink="http://www.w3.org/1999/xlink" 
	 viewBox="0 0 511.999 511.999" xml:space="preserve">
<path style="fill:#3C3A41;" d="M459.621,156.039C435.499,66.169,353.483,0,256,0l0,0C158.515,0,76.499,66.168,52.378,156.039
	l-0.173,0.631c-4.585,17.282-7.033,35.432-7.033,54.157v135.525v0.006v1.098v86.785c0,42.939,34.809,77.75,77.75,77.75h47.562
	h171.03h0.001h47.561c42.939,0,77.75-34.809,77.75-77.75v-86.608c0-0.06,0-0.119,0-0.178v-1.098V210.827
	C466.825,191.873,464.31,173.512,459.621,156.039z"/>
<path style="fill:#EEE5DD;" d="M466.825,346.358c0-18.953-2.515-37.315-7.206-54.788C435.499,201.701,353.483,135.531,256,135.531
	l0,0c-97.485,0-179.501,66.168-203.622,156.039l-0.173,0.631c-4.585,17.28-7.033,35.429-7.033,54.152v1.104
	c0,46.575,37.756,84.331,84.331,84.331l0,0v37.179c0,22.976,18.014,42.397,40.982,43.027h171.032
	c22.967-0.629,40.98-20.051,40.98-43.027V431.79c46.337,0,83.945-37.372,84.328-83.618c0.002-0.238,0.003-0.474,0.003-0.712v-1.101
	H466.825z"/>
<g>
	<circle style="fill:#20272E;" cx="155.092" cy="346.719" r="24.516"/>
	<circle style="fill:#20272E;" cx="356.899" cy="346.719" r="24.516"/>
	<path style="fill:#20272E;" d="M264.93,360.348c-4.694-5.5-13.169-5.5-17.863,0c-13.522,15.841-35.435,52.247-13.817,52.247h45.498
		C300.365,412.595,278.452,376.189,264.93,360.348z"/>
	<path style="fill:#20272E;" d="M255.998,435.89c-6.239,0-11.294,5.057-11.294,11.294v64.807h22.589v-64.807
		C267.293,440.947,262.236,435.89,255.998,435.89z"/>
	<path style="fill:#20272E;" d="M210.239,511.991v-64.807c0-6.237-5.055-11.294-11.294-11.294s-11.294,5.057-11.294,11.294v64.807
		H210.239z"/>
	<path style="fill:#20272E;" d="M313.054,435.89c-6.239,0-11.294,5.057-11.294,11.294v64.807h22.589v-64.807
		C324.348,440.947,319.292,435.89,313.054,435.89z"/>
	<path style="opacity:0.3;fill:#20272E;enable-background:new    ;" d="M459.621,156.048
		C435.499,66.177,353.483,0.008,255.998,0.008l0,0v511.991h11.294h34.467h22.589h17.166h0.001h47.561
		c42.939,0,77.75-34.809,77.75-77.75v-86.608c0-0.059,0-0.119,0-0.178v-1.098V210.834
		C466.825,191.882,464.31,173.519,459.621,156.048z"/>
</g>
</svg>