<?xml version="1.0" ?>
<!-- Uploaded to: SVG Repo, www.svgrepo.com, Generator: SVG Repo Mixer Tools -->
<svg width="800px" height="800px" viewBox="0 0 135.46667 135.46667" id="svg8" version="1.1" xmlns="http://www.w3.org/2000/svg" xmlns:cc="http://creativecommons.org/ns#" xmlns:dc="http://purl.org/dc/elements/1.1/" xmlns:inkscape="http://www.inkscape.org/namespaces/inkscape" xmlns:rdf="http://www.w3.org/1999/02/22-rdf-syntax-ns#" xmlns:sodipodi="http://sodipodi.sourceforge.net/DTD/sodipodi-0.dtd" xmlns:svg="http://www.w3.org/2000/svg">
<defs id="defs2">
<marker id="marker3773" orient="auto" refX="0.0" refY="0.0" style="overflow:visible">
<path d="M -2.5,-1.0 C -2.5,1.7600000 -4.7400000,4.0 -7.5,4.0 C -10.260000,4.0 -12.5,1.7600000 -12.5,-1.0 C -12.5,-3.7600000 -10.260000,-6.0 -7.5,-6.0 C -4.7400000,-6.0 -2.5,-3.7600000 -2.5,-1.0 z " id="path3771" style="fill-rule:evenodd;stroke:#c2c2c2;stroke-width:1pt;stroke-opacity:1;fill:#c2c2c2;fill-opacity:1" transform="scale(0.2) translate(7.4, 1)"/>
</marker>
<marker id="marker2116" orient="auto" refX="0.0" refY="0.0" style="overflow:visible">
<path d="M -2.5,-1.0 C -2.5,1.7600000 -4.7400000,4.0 -7.5,4.0 C -10.260000,4.0 -12.5,1.7600000 -12.5,-1.0 C -12.5,-3.7600000 -10.260000,-6.0 -7.5,-6.0 C -4.7400000,-6.0 -2.5,-3.7600000 -2.5,-1.0 z " id="path2114" style="fill-rule:evenodd;stroke:#c2c2c2;stroke-width:1pt;stroke-opacity:1;fill:#c2c2c2;fill-opacity:1" transform="scale(0.4) translate(7.4, 1)"/>
</marker>
<marker id="TriangleInS" orient="auto" refX="0.0" refY="0.0" style="overflow:visible">
<path d="M 5.77,0.0 L -2.88,5.0 L -2.88,-5.0 L 5.77,0.0 z " id="path1725" style="fill-rule:evenodd;stroke:#333333;stroke-width:1pt;stroke-opacity:1;fill:#333333;fill-opacity:1" transform="scale(-0.2)"/>
</marker>
<marker id="TriangleInM" orient="auto" refX="0.0" refY="0.0" style="overflow:visible">
<path d="M 5.77,0.0 L -2.88,5.0 L -2.88,-5.0 L 5.77,0.0 z " id="path1722" style="fill-rule:evenodd;stroke:#000000;stroke-width:1pt;stroke-opacity:1;fill:#000000;fill-opacity:1" transform="scale(-0.4)"/>
</marker>
<marker id="TriangleOutM" orient="auto" refX="0.0" refY="0.0" style="overflow:visible">
<path d="M 5.77,0.0 L -2.88,5.0 L -2.88,-5.0 L 5.77,0.0 z " id="path1731" style="fill-rule:evenodd;stroke:#000000;stroke-width:1pt;stroke-opacity:1;fill:#000000;fill-opacity:1" transform="scale(0.4)"/>
</marker>
<marker id="TriangleOutS" orient="auto" refX="0.0" refY="0.0" style="overflow:visible">
<path d="M 5.77,0.0 L -2.88,5.0 L -2.88,-5.0 L 5.77,0.0 z " id="path1734" style="fill-rule:evenodd;stroke:#333333;stroke-width:1pt;stroke-opacity:1;fill:#333333;fill-opacity:1" transform="scale(0.2)"/>
</marker>
<marker id="TriangleInM-0" orient="auto" refX="0" refY="0" style="overflow:visible">
<path d="M 5.77,0 -2.88,5 V -5 Z" id="path1722-5" style="fill:#000000;fill-opacity:1;fill-rule:evenodd;stroke:#000000;stroke-width:1pt;stroke-opacity:1" transform="scale(-0.4)"/>
</marker>
<marker id="TriangleOutM-4" orient="auto" refX="0" refY="0" style="overflow:visible">
<path d="M 5.77,0 -2.88,5 V -5 Z" id="path1731-9" style="fill:#000000;fill-opacity:1;fill-rule:evenodd;stroke:#000000;stroke-width:1pt;stroke-opacity:1" transform="scale(0.4)"/>
</marker>
<marker id="TriangleInS-4" orient="auto" refX="0" refY="0" style="overflow:visible">
<path d="M 5.77,0 -2.88,5 V -5 Z" id="path1725-6" style="fill:#333333;fill-opacity:1;fill-rule:evenodd;stroke:#333333;stroke-width:1pt;stroke-opacity:1" transform="scale(-0.2)"/>
</marker>
<marker id="TriangleOutS-8" orient="auto" refX="0" refY="0" style="overflow:visible">
<path d="M 5.77,0 -2.88,5 V -5 Z" id="path1734-5" style="fill:#333333;fill-opacity:1;fill-rule:evenodd;stroke:#333333;stroke-width:1pt;stroke-opacity:1" transform="scale(0.2)"/>
</marker>
<marker id="TriangleInS-5" orient="auto" refX="0" refY="0" style="overflow:visible">
<path d="M 5.77,0 -2.88,5 V -5 Z" id="path1725-1" style="fill:#757575;fill-opacity:1;fill-rule:evenodd;stroke:#757575;stroke-width:1pt;stroke-opacity:1" transform="scale(-0.2)"/>
</marker>
<marker id="TriangleOutS-2" orient="auto" refX="0" refY="0" style="overflow:visible">
<path d="M 5.77,0 -2.88,5 V -5 Z" id="path1734-7" style="fill:#757575;fill-opacity:1;fill-rule:evenodd;stroke:#757575;stroke-width:1pt;stroke-opacity:1" transform="scale(0.2)"/>
</marker>
</defs>
<g id="layer1">
<path d="M 31.75 55.033203 C 23.592054 55.033203 16.933594 61.691663 16.933594 69.849609 C 16.933594 78.007556 23.592054 84.666016 31.75 84.666016 C 39.907946 84.666016 46.566406 78.007556 46.566406 69.849609 C 46.566406 61.691663 39.907946 55.033203 31.75 55.033203 z M 31.75 59.267578 C 37.620084 59.267578 42.333984 63.979524 42.333984 69.849609 C 42.333984 75.719695 37.620084 80.433594 31.75 80.433594 C 25.879916 80.433594 21.166016 75.719695 21.166016 69.849609 C 21.166016 63.979524 25.879916 59.267578 31.75 59.267578 z " id="path993" style="color:#000000;font-style:normal;font-variant:normal;font-weight:normal;font-stretch:normal;font-size:medium;line-height:normal;font-family:sans-serif;font-variant-ligatures:normal;font-variant-position:normal;font-variant-caps:normal;font-variant-numeric:normal;font-variant-alternates:normal;font-variant-east-asian:normal;font-feature-settings:normal;font-variation-settings:normal;text-indent:0;text-align:start;text-decoration:none;text-decoration-line:none;text-decoration-style:solid;text-decoration-color:#000000;letter-spacing:normal;word-spacing:normal;text-transform:none;writing-mode:lr-tb;direction:ltr;text-orientation:mixed;dominant-baseline:auto;baseline-shift:baseline;text-anchor:start;white-space:normal;shape-padding:0;shape-margin:0;inline-size:0;clip-rule:nonzero;display:inline;overflow:visible;visibility:visible;isolation:auto;mix-blend-mode:normal;color-interpolation:sRGB;color-interpolation-filters:linearRGB;solid-color:#000000;solid-opacity:1;vector-effect:none;fill:#616161;fill-opacity:1;fill-rule:nonzero;stroke:none;stroke-width:4.23333;stroke-linecap:round;stroke-linejoin:round;stroke-miterlimit:4;stroke-dasharray:none;stroke-dashoffset:0;stroke-opacity:1;color-rendering:auto;image-rendering:auto;shape-rendering:auto;text-rendering:auto;enable-background:accumulate;stop-color:#000000;stop-opacity:1;opacity:1"/>
<path d="M 57.150391 57.150391 C 52.499453 57.15039 48.683594 60.96625 48.683594 65.617188 C 48.683594 70.268125 52.499453 74.083985 57.150391 74.083984 C 61.801328 74.083984 65.617187 70.268124 65.617188 65.617188 C 65.617187 60.966251 61.801328 57.150391 57.150391 57.150391 z M 57.150391 61.382812 C 59.513468 61.382813 61.382812 63.254113 61.382812 65.617188 C 61.382812 67.980262 59.513468 69.849609 57.150391 69.849609 C 54.787313 69.84961 52.916016 67.980262 52.916016 65.617188 C 52.916016 63.254113 54.787313 61.382812 57.150391 61.382812 z " id="path997" style="color:#000000;font-style:normal;font-variant:normal;font-weight:normal;font-stretch:normal;font-size:medium;line-height:normal;font-family:sans-serif;font-variant-ligatures:normal;font-variant-position:normal;font-variant-caps:normal;font-variant-numeric:normal;font-variant-alternates:normal;font-variant-east-asian:normal;font-feature-settings:normal;font-variation-settings:normal;text-indent:0;text-align:start;text-decoration:none;text-decoration-line:none;text-decoration-style:solid;text-decoration-color:#000000;letter-spacing:normal;word-spacing:normal;text-transform:none;writing-mode:lr-tb;direction:ltr;text-orientation:mixed;dominant-baseline:auto;baseline-shift:baseline;text-anchor:start;white-space:normal;shape-padding:0;shape-margin:0;inline-size:0;clip-rule:nonzero;display:inline;overflow:visible;visibility:visible;isolation:auto;mix-blend-mode:normal;color-interpolation:sRGB;color-interpolation-filters:linearRGB;solid-color:#000000;solid-opacity:1;vector-effect:none;fill:#616161;fill-opacity:1;fill-rule:nonzero;stroke:none;stroke-width:4.23333;stroke-linecap:round;stroke-linejoin:round;stroke-miterlimit:4;stroke-dasharray:none;stroke-dashoffset:0;stroke-opacity:1;color-rendering:auto;image-rendering:auto;shape-rendering:auto;text-rendering:auto;enable-background:accumulate;stop-color:#000000;stop-opacity:1;opacity:1"/>
<path d="M 56.091797 76.199219 C 45.595845 76.199219 37.041016 84.754048 37.041016 95.25 C 37.041017 105.74595 45.595846 114.30078 56.091797 114.30078 C 66.587748 114.30078 75.142577 105.74595 75.142578 95.25 C 75.142578 84.754048 66.587749 76.199218 56.091797 76.199219 z M 56.091797 80.433594 C 64.299888 80.433593 70.908203 87.041909 70.908203 95.25 C 70.908202 103.45809 64.299887 110.06641 56.091797 110.06641 C 47.883707 110.06641 41.275392 103.45809 41.275391 95.25 C 41.275391 87.04191 47.883706 80.433594 56.091797 80.433594 z " id="path989" style="color:#000000;font-style:normal;font-variant:normal;font-weight:normal;font-stretch:normal;font-size:medium;line-height:normal;font-family:sans-serif;font-variant-ligatures:normal;font-variant-position:normal;font-variant-caps:normal;font-variant-numeric:normal;font-variant-alternates:normal;font-variant-east-asian:normal;font-feature-settings:normal;font-variation-settings:normal;text-indent:0;text-align:start;text-decoration:none;text-decoration-line:none;text-decoration-style:solid;text-decoration-color:#000000;letter-spacing:normal;word-spacing:normal;text-transform:none;writing-mode:lr-tb;direction:ltr;text-orientation:mixed;dominant-baseline:auto;baseline-shift:baseline;text-anchor:start;white-space:normal;shape-padding:0;shape-margin:0;inline-size:0;clip-rule:nonzero;display:inline;overflow:visible;visibility:visible;isolation:auto;mix-blend-mode:normal;color-interpolation:sRGB;color-interpolation-filters:linearRGB;solid-color:#000000;solid-opacity:1;vector-effect:none;fill:#616161;fill-opacity:1;fill-rule:nonzero;stroke:none;stroke-width:4.23333;stroke-linecap:round;stroke-linejoin:round;stroke-miterlimit:4;stroke-dasharray:none;stroke-dashoffset:0;stroke-opacity:1;color-rendering:auto;image-rendering:auto;shape-rendering:auto;text-rendering:auto;enable-background:accumulate;stop-color:#000000;stop-opacity:1;opacity:1"/>
<path d="M 89.958984 16.933594 A 2.1168782 2.1168782 0 0 0 88.580078 17.443359 L 51.539062 49.193359 A 2.1168782 2.1168782 0 0 0 52.916016 52.916016 L 65.617188 52.916016 A 2.1168782 2.1168782 0 0 0 67.113281 52.296875 L 98.863281 20.546875 A 2.1168782 2.1168782 0 0 0 97.367188 16.933594 L 89.958984 16.933594 z M 90.742188 21.166016 L 92.255859 21.166016 L 64.738281 48.683594 L 58.638672 48.683594 L 90.742188 21.166016 z " id="path1005" style="color:#000000;font-style:normal;font-variant:normal;font-weight:normal;font-stretch:normal;font-size:medium;line-height:normal;font-family:sans-serif;font-variant-ligatures:normal;font-variant-position:normal;font-variant-caps:normal;font-variant-numeric:normal;font-variant-alternates:normal;font-variant-east-asian:normal;font-feature-settings:normal;font-variation-settings:normal;text-indent:0;text-align:start;text-decoration:none;text-decoration-line:none;text-decoration-style:solid;text-decoration-color:#000000;letter-spacing:normal;word-spacing:normal;text-transform:none;writing-mode:lr-tb;direction:ltr;text-orientation:mixed;dominant-baseline:auto;baseline-shift:baseline;text-anchor:start;white-space:normal;shape-padding:0;shape-margin:0;inline-size:0;clip-rule:nonzero;display:inline;overflow:visible;visibility:visible;isolation:auto;mix-blend-mode:normal;color-interpolation:sRGB;color-interpolation-filters:linearRGB;solid-color:#000000;solid-opacity:1;vector-effect:none;fill:#616161;fill-opacity:1;fill-rule:nonzero;stroke:none;stroke-width:4.23333;stroke-linecap:round;stroke-linejoin:round;stroke-miterlimit:4;stroke-dasharray:none;stroke-dashoffset:0;stroke-opacity:1;color-rendering:auto;image-rendering:auto;shape-rendering:auto;text-rendering:auto;enable-background:accumulate;stop-color:#000000;stop-opacity:1;opacity:1"/>
<path d="M 101.62109 23.283203 A 2.1168782 2.1168782 0 0 0 100.10352 23.902344 L 68.353516 55.652344 A 2.1168782 2.1168782 0 0 0 67.732422 57.150391 L 67.732422 69.849609 A 2.1168782 2.1168782 0 0 0 71.457031 71.226562 L 103.20703 34.185547 A 2.1168782 2.1168782 0 0 0 103.7168 32.808594 L 103.7168 25.400391 A 2.1168782 2.1168782 0 0 0 101.62109 23.283203 z M 99.482422 30.511719 L 99.482422 32.025391 L 71.966797 64.126953 L 71.966797 58.027344 L 99.482422 30.511719 z " id="path1009" style="color:#000000;font-style:normal;font-variant:normal;font-weight:normal;font-stretch:normal;font-size:medium;line-height:normal;font-family:sans-serif;font-variant-ligatures:normal;font-variant-position:normal;font-variant-caps:normal;font-variant-numeric:normal;font-variant-alternates:normal;font-variant-east-asian:normal;font-feature-settings:normal;font-variation-settings:normal;text-indent:0;text-align:start;text-decoration:none;text-decoration-line:none;text-decoration-style:solid;text-decoration-color:#000000;letter-spacing:normal;word-spacing:normal;text-transform:none;writing-mode:lr-tb;direction:ltr;text-orientation:mixed;dominant-baseline:auto;baseline-shift:baseline;text-anchor:start;white-space:normal;shape-padding:0;shape-margin:0;inline-size:0;clip-rule:nonzero;display:inline;overflow:visible;visibility:visible;isolation:auto;mix-blend-mode:normal;color-interpolation:sRGB;color-interpolation-filters:linearRGB;solid-color:#000000;solid-opacity:1;vector-effect:none;fill:#616161;fill-opacity:1;fill-rule:nonzero;stroke:none;stroke-width:4.23333;stroke-linecap:round;stroke-linejoin:round;stroke-miterlimit:4;stroke-dasharray:none;stroke-dashoffset:0;stroke-opacity:1;color-rendering:auto;image-rendering:auto;shape-rendering:auto;text-rendering:auto;enable-background:accumulate;stop-color:#000000;stop-opacity:1;opacity:1"/>
<path d="M 56.091797 83.607422 C 49.687355 83.607422 44.449219 88.845557 44.449219 95.25 C 44.44922 101.65444 49.687356 106.89258 56.091797 106.89258 C 62.496238 106.89258 67.73242 101.65444 67.732422 95.25 C 67.732422 88.845556 62.496239 83.607422 56.091797 83.607422 z M 56.091797 87.841797 C 60.208377 87.841797 63.5 91.133416 63.5 95.25 C 63.499999 99.366583 60.208376 102.6582 56.091797 102.6582 C 51.975218 102.6582 48.683595 99.366583 48.683594 95.25 C 48.683594 91.133417 51.975217 87.841797 56.091797 87.841797 z " id="path1001" style="color:#000000;font-style:normal;font-variant:normal;font-weight:normal;font-stretch:normal;font-size:medium;line-height:normal;font-family:sans-serif;font-variant-ligatures:normal;font-variant-position:normal;font-variant-caps:normal;font-variant-numeric:normal;font-variant-alternates:normal;font-variant-east-asian:normal;font-feature-settings:normal;font-variation-settings:normal;text-indent:0;text-align:start;text-decoration:none;text-decoration-line:none;text-decoration-style:solid;text-decoration-color:#000000;letter-spacing:normal;word-spacing:normal;text-transform:none;writing-mode:lr-tb;direction:ltr;text-orientation:mixed;dominant-baseline:auto;baseline-shift:baseline;text-anchor:start;white-space:normal;shape-padding:0;shape-margin:0;inline-size:0;clip-rule:nonzero;display:inline;overflow:visible;visibility:visible;isolation:auto;mix-blend-mode:normal;color-interpolation:sRGB;color-interpolation-filters:linearRGB;solid-color:#000000;solid-opacity:1;vector-effect:none;fill:#616161;fill-opacity:1;fill-rule:nonzero;stroke:none;stroke-width:4.23333;stroke-linecap:round;stroke-linejoin:round;stroke-miterlimit:4;stroke-dasharray:none;stroke-dashoffset:0;stroke-opacity:1;color-rendering:auto;image-rendering:auto;shape-rendering:auto;text-rendering:auto;enable-background:accumulate;stop-color:#000000;stop-opacity:1;opacity:1"/>
<path d="M 67.732422 114.30078 A 2.1166666 2.1166666 0 0 0 65.617188 116.41602 A 2.1166666 2.1166666 0 0 0 67.732422 118.5332 L 116.41602 118.5332 A 2.1166666 2.1166666 0 0 0 118.5332 116.41602 A 2.1166666 2.1166666 0 0 0 116.41602 114.30078 L 67.732422 114.30078 z " id="path1013" style="color:#000000;font-style:normal;font-variant:normal;font-weight:normal;font-stretch:normal;font-size:medium;line-height:normal;font-family:sans-serif;font-variant-ligatures:normal;font-variant-position:normal;font-variant-caps:normal;font-variant-numeric:normal;font-variant-alternates:normal;font-variant-east-asian:normal;font-feature-settings:normal;font-variation-settings:normal;text-indent:0;text-align:start;text-decoration:none;text-decoration-line:none;text-decoration-style:solid;text-decoration-color:#000000;letter-spacing:normal;word-spacing:normal;text-transform:none;writing-mode:lr-tb;direction:ltr;text-orientation:mixed;dominant-baseline:auto;baseline-shift:baseline;text-anchor:start;white-space:normal;shape-padding:0;shape-margin:0;inline-size:0;clip-rule:nonzero;display:inline;overflow:visible;visibility:visible;isolation:auto;mix-blend-mode:normal;color-interpolation:sRGB;color-interpolation-filters:linearRGB;solid-color:#000000;solid-opacity:1;vector-effect:none;fill:#c2185b;fill-opacity:1;fill-rule:nonzero;stroke:none;stroke-width:4.23333;stroke-linecap:round;stroke-linejoin:round;stroke-miterlimit:4;stroke-dasharray:none;stroke-dashoffset:0;stroke-opacity:1;color-rendering:auto;image-rendering:auto;shape-rendering:auto;text-rendering:auto;enable-background:accumulate;stop-color:#000000;stop-opacity:1;opacity:1"/>
<path d="M 110.06641 91.017578 A 2.1166666 2.1166666 0 0 0 107.94922 93.132812 A 2.1166666 2.1166666 0 0 0 110.06641 95.25 L 116.41602 95.25 A 2.1166666 2.1166666 0 0 0 118.5332 93.132812 A 2.1166666 2.1166666 0 0 0 116.41602 91.017578 L 110.06641 91.017578 z " id="path1017" style="color:#000000;font-style:normal;font-variant:normal;font-weight:normal;font-stretch:normal;font-size:medium;line-height:normal;font-family:sans-serif;font-variant-ligatures:normal;font-variant-position:normal;font-variant-caps:normal;font-variant-numeric:normal;font-variant-alternates:normal;font-variant-east-asian:normal;font-feature-settings:normal;font-variation-settings:normal;text-indent:0;text-align:start;text-decoration:none;text-decoration-line:none;text-decoration-style:solid;text-decoration-color:#000000;letter-spacing:normal;word-spacing:normal;text-transform:none;writing-mode:lr-tb;direction:ltr;text-orientation:mixed;dominant-baseline:auto;baseline-shift:baseline;text-anchor:start;white-space:normal;shape-padding:0;shape-margin:0;inline-size:0;clip-rule:nonzero;display:inline;overflow:visible;visibility:visible;isolation:auto;mix-blend-mode:normal;color-interpolation:sRGB;color-interpolation-filters:linearRGB;solid-color:#000000;solid-opacity:1;vector-effect:none;fill:#00796b;fill-opacity:1;fill-rule:nonzero;stroke:none;stroke-width:4.23333;stroke-linecap:round;stroke-linejoin:round;stroke-miterlimit:4;stroke-dasharray:none;stroke-dashoffset:0;stroke-opacity:1;color-rendering:auto;image-rendering:auto;shape-rendering:auto;text-rendering:auto;enable-background:accumulate;stop-color:#000000;stop-opacity:1;opacity:1"/>
<path d="M 95.25 91.017578 A 2.1166666 2.1166666 0 0 0 93.132812 93.132812 A 2.1166666 2.1166666 0 0 0 95.25 95.25 L 101.59961 95.25 A 2.1166666 2.1166666 0 0 0 103.7168 93.132812 A 2.1166666 2.1166666 0 0 0 101.59961 91.017578 L 95.25 91.017578 z " id="path1021" style="color:#000000;font-style:normal;font-variant:normal;font-weight:normal;font-stretch:normal;font-size:medium;line-height:normal;font-family:sans-serif;font-variant-ligatures:normal;font-variant-position:normal;font-variant-caps:normal;font-variant-numeric:normal;font-variant-alternates:normal;font-variant-east-asian:normal;font-feature-settings:normal;font-variation-settings:normal;text-indent:0;text-align:start;text-decoration:none;text-decoration-line:none;text-decoration-style:solid;text-decoration-color:#000000;letter-spacing:normal;word-spacing:normal;text-transform:none;writing-mode:lr-tb;direction:ltr;text-orientation:mixed;dominant-baseline:auto;baseline-shift:baseline;text-anchor:start;white-space:normal;shape-padding:0;shape-margin:0;inline-size:0;clip-rule:nonzero;display:inline;overflow:visible;visibility:visible;isolation:auto;mix-blend-mode:normal;color-interpolation:sRGB;color-interpolation-filters:linearRGB;solid-color:#000000;solid-opacity:1;vector-effect:none;fill:#00796b;fill-opacity:1;fill-rule:nonzero;stroke:none;stroke-width:4.23333;stroke-linecap:round;stroke-linejoin:round;stroke-miterlimit:4;stroke-dasharray:none;stroke-dashoffset:0;stroke-opacity:1;color-rendering:auto;image-rendering:auto;shape-rendering:auto;text-rendering:auto;enable-background:accumulate;stop-color:#000000;stop-opacity:1;opacity:1"/>
</g>
</svg>